<svg width="380" height="184" viewBox="0 0 380 184" fill="none" xmlns="http://www.w3.org/2000/svg">
<g filter="url(#filter0_d_108_32)">
<rect x="10" width="360" height="48" rx="10" fill="#02A28F" shape-rendering="crispEdges"/>
<path d="M42.36 31.24C41.28 31.24 40.2733 31.0667 39.34 30.72C38.42 30.36 37.62 29.8533 36.94 29.2C36.26 28.5467 35.7267 27.78 35.34 26.9C34.9667 26.02 34.78 25.0533 34.78 24C34.78 22.9467 34.9667 21.98 35.34 21.1C35.7267 20.22 36.26 19.4533 36.94 18.8C37.6333 18.1467 38.44 17.6467 39.36 17.3C40.28 16.94 41.2867 16.76 42.38 16.76C43.5933 16.76 44.6867 16.9733 45.66 17.4C46.6467 17.8133 47.4733 18.4267 48.14 19.24L46.06 21.16C45.58 20.6133 45.0467 20.2067 44.46 19.94C43.8733 19.66 43.2333 19.52 42.54 19.52C41.8867 19.52 41.2867 19.6267 40.74 19.84C40.1933 20.0533 39.72 20.36 39.32 20.76C38.92 21.16 38.6067 21.6333 38.38 22.18C38.1667 22.7267 38.06 23.3333 38.06 24C38.06 24.6667 38.1667 25.2733 38.38 25.82C38.6067 26.3667 38.92 26.84 39.32 27.24C39.72 27.64 40.1933 27.9467 40.74 28.16C41.2867 28.3733 41.8867 28.48 42.54 28.48C43.2333 28.48 43.8733 28.3467 44.46 28.08C45.0467 27.8 45.58 27.38 46.06 26.82L48.14 28.74C47.4733 29.5533 46.6467 30.1733 45.66 30.6C44.6867 31.0267 43.5867 31.24 42.36 31.24ZM56.6494 31V28.9L56.4494 28.44V24.68C56.4494 24.0133 56.2427 23.4933 55.8294 23.12C55.4294 22.7467 54.8094 22.56 53.9694 22.56C53.396 22.56 52.8294 22.6533 52.2694 22.84C51.7227 23.0133 51.256 23.2533 50.8694 23.56L49.7494 21.38C50.336 20.9667 51.0427 20.6467 51.8694 20.42C52.696 20.1933 53.536 20.08 54.3894 20.08C56.0294 20.08 57.3027 20.4667 58.2094 21.24C59.116 22.0133 59.5694 23.22 59.5694 24.86V31H56.6494ZM53.3694 31.16C52.5294 31.16 51.8094 31.02 51.2094 30.74C50.6094 30.4467 50.1494 30.0533 49.8294 29.56C49.5094 29.0667 49.3494 28.5133 49.3494 27.9C49.3494 27.26 49.5027 26.7 49.8094 26.22C50.1294 25.74 50.6294 25.3667 51.3094 25.1C51.9894 24.82 52.876 24.68 53.9694 24.68H56.8294V26.5H54.3094C53.576 26.5 53.0694 26.62 52.7894 26.86C52.5227 27.1 52.3894 27.4 52.3894 27.76C52.3894 28.16 52.5427 28.48 52.8494 28.72C53.1694 28.9467 53.6027 29.06 54.1494 29.06C54.6694 29.06 55.136 28.94 55.5494 28.7C55.9627 28.4467 56.2627 28.08 56.4494 27.6L56.9294 29.04C56.7027 29.7333 56.2894 30.26 55.6894 30.62C55.0894 30.98 54.316 31.16 53.3694 31.16ZM66.7931 31.16C65.5265 31.16 64.5398 30.84 63.8331 30.2C63.1265 29.5467 62.7731 28.58 62.7731 27.3V17.86H65.8931V27.26C65.8931 27.7133 66.0131 28.0667 66.2531 28.32C66.4931 28.56 66.8198 28.68 67.2331 28.68C67.7265 28.68 68.1465 28.5467 68.4931 28.28L69.3331 30.48C69.0131 30.7067 68.6265 30.88 68.1731 31C67.7331 31.1067 67.2731 31.16 66.7931 31.16ZM61.1131 22.88V20.48H68.5731V22.88H61.1131ZM76.0925 31.16C74.8658 31.16 73.7858 30.92 72.8525 30.44C71.9325 29.96 71.2192 29.3067 70.7125 28.48C70.2058 27.64 69.9525 26.6867 69.9525 25.62C69.9525 24.54 70.1992 23.5867 70.6925 22.76C71.1992 21.92 71.8858 21.2667 72.7525 20.8C73.6192 20.32 74.5992 20.08 75.6925 20.08C76.7458 20.08 77.6925 20.3067 78.5325 20.76C79.3858 21.2 80.0592 21.84 80.5525 22.68C81.0458 23.5067 81.2925 24.5 81.2925 25.66C81.2925 25.78 81.2858 25.92 81.2725 26.08C81.2592 26.2267 81.2458 26.3667 81.2325 26.5H72.4925V24.68H79.5925L78.3925 25.22C78.3925 24.66 78.2792 24.1733 78.0525 23.76C77.8258 23.3467 77.5125 23.0267 77.1125 22.8C76.7125 22.56 76.2458 22.44 75.7125 22.44C75.1792 22.44 74.7058 22.56 74.2925 22.8C73.8925 23.0267 73.5792 23.3533 73.3525 23.78C73.1258 24.1933 73.0125 24.6867 73.0125 25.26V25.74C73.0125 26.3267 73.1392 26.8467 73.3925 27.3C73.6592 27.74 74.0258 28.08 74.4925 28.32C74.9725 28.5467 75.5325 28.66 76.1725 28.66C76.7458 28.66 77.2458 28.5733 77.6725 28.4C78.1125 28.2267 78.5125 27.9667 78.8725 27.62L80.5325 29.42C80.0392 29.98 79.4192 30.4133 78.6725 30.72C77.9258 31.0133 77.0658 31.16 76.0925 31.16ZM88.4297 35.04C87.4164 35.04 86.4364 34.9133 85.4897 34.66C84.5564 34.42 83.7764 34.0533 83.1497 33.56L84.3897 31.32C84.843 31.6933 85.4164 31.9867 86.1097 32.2C86.8164 32.4267 87.5097 32.54 88.1897 32.54C89.2964 32.54 90.0964 32.2933 90.5897 31.8C91.0964 31.3067 91.3497 30.5733 91.3497 29.6V27.98L91.5497 25.28L91.5097 22.56V20.24H94.4697V29.2C94.4697 31.2 93.9497 32.6733 92.9097 33.62C91.8697 34.5667 90.3764 35.04 88.4297 35.04ZM87.9497 30.48C86.9497 30.48 86.043 30.2667 85.2297 29.84C84.4297 29.4 83.783 28.7933 83.2897 28.02C82.8097 27.2333 82.5697 26.32 82.5697 25.28C82.5697 24.2267 82.8097 23.3133 83.2897 22.54C83.783 21.7533 84.4297 21.1467 85.2297 20.72C86.043 20.2933 86.9497 20.08 87.9497 20.08C88.8564 20.08 89.6564 20.2667 90.3497 20.64C91.043 21 91.583 21.5667 91.9697 22.34C92.3564 23.1 92.5497 24.08 92.5497 25.28C92.5497 26.4667 92.3564 27.4467 91.9697 28.22C91.583 28.98 91.043 29.5467 90.3497 29.92C89.6564 30.2933 88.8564 30.48 87.9497 30.48ZM88.5697 27.92C89.1164 27.92 89.603 27.8133 90.0297 27.6C90.4564 27.3733 90.7897 27.06 91.0297 26.66C91.2697 26.26 91.3897 25.8 91.3897 25.28C91.3897 24.7467 91.2697 24.2867 91.0297 23.9C90.7897 23.5 90.4564 23.1933 90.0297 22.98C89.603 22.7533 89.1164 22.64 88.5697 22.64C88.023 22.64 87.5364 22.7533 87.1097 22.98C86.683 23.1933 86.343 23.5 86.0897 23.9C85.8497 24.2867 85.7297 24.7467 85.7297 25.28C85.7297 25.8 85.8497 26.26 86.0897 26.66C86.343 27.06 86.683 27.3733 87.1097 27.6C87.5364 27.8133 88.023 27.92 88.5697 27.92ZM102.494 31.16C101.347 31.16 100.327 30.92 99.4336 30.44C98.5536 29.96 97.8536 29.3067 97.3336 28.48C96.8269 27.64 96.5736 26.6867 96.5736 25.62C96.5736 24.54 96.8269 23.5867 97.3336 22.76C97.8536 21.92 98.5536 21.2667 99.4336 20.8C100.327 20.32 101.347 20.08 102.494 20.08C103.627 20.08 104.64 20.32 105.534 20.8C106.427 21.2667 107.127 21.9133 107.634 22.74C108.14 23.5667 108.394 24.5267 108.394 25.62C108.394 26.6867 108.14 27.64 107.634 28.48C107.127 29.3067 106.427 29.96 105.534 30.44C104.64 30.92 103.627 31.16 102.494 31.16ZM102.494 28.6C103.014 28.6 103.48 28.48 103.894 28.24C104.307 28 104.634 27.66 104.874 27.22C105.114 26.7667 105.234 26.2333 105.234 25.62C105.234 24.9933 105.114 24.46 104.874 24.02C104.634 23.58 104.307 23.24 103.894 23C103.48 22.76 103.014 22.64 102.494 22.64C101.974 22.64 101.507 22.76 101.094 23C100.68 23.24 100.347 23.58 100.094 24.02C99.8536 24.46 99.7336 24.9933 99.7336 25.62C99.7336 26.2333 99.8536 26.7667 100.094 27.22C100.347 27.66 100.68 28 101.094 28.24C101.507 28.48 101.974 28.6 102.494 28.6ZM110.479 31V20.24H113.459V23.28L113.039 22.4C113.359 21.64 113.872 21.0667 114.579 20.68C115.286 20.28 116.146 20.08 117.159 20.08V22.96C117.026 22.9467 116.906 22.94 116.799 22.94C116.692 22.9267 116.579 22.92 116.459 22.92C115.606 22.92 114.912 23.1667 114.379 23.66C113.859 24.14 113.599 24.8933 113.599 25.92V31H110.479ZM119.034 31V20.24H122.154V31H119.034ZM120.594 18.74C120.02 18.74 119.554 18.5733 119.194 18.24C118.834 17.9067 118.654 17.4933 118.654 17C118.654 16.5067 118.834 16.0933 119.194 15.76C119.554 15.4267 120.02 15.26 120.594 15.26C121.167 15.26 121.634 15.42 121.994 15.74C122.354 16.0467 122.534 16.4467 122.534 16.94C122.534 17.46 122.354 17.8933 121.994 18.24C121.647 18.5733 121.18 18.74 120.594 18.74ZM131.649 31V28.9L131.449 28.44V24.68C131.449 24.0133 131.243 23.4933 130.829 23.12C130.429 22.7467 129.809 22.56 128.969 22.56C128.396 22.56 127.829 22.6533 127.269 22.84C126.723 23.0133 126.256 23.2533 125.869 23.56L124.749 21.38C125.336 20.9667 126.043 20.6467 126.869 20.42C127.696 20.1933 128.536 20.08 129.389 20.08C131.029 20.08 132.303 20.4667 133.209 21.24C134.116 22.0133 134.569 23.22 134.569 24.86V31H131.649ZM128.369 31.16C127.529 31.16 126.809 31.02 126.209 30.74C125.609 30.4467 125.149 30.0533 124.829 29.56C124.509 29.0667 124.349 28.5133 124.349 27.9C124.349 27.26 124.503 26.7 124.809 26.22C125.129 25.74 125.629 25.3667 126.309 25.1C126.989 24.82 127.876 24.68 128.969 24.68H131.829V26.5H129.309C128.576 26.5 128.069 26.62 127.789 26.86C127.523 27.1 127.389 27.4 127.389 27.76C127.389 28.16 127.543 28.48 127.849 28.72C128.169 28.9467 128.603 29.06 129.149 29.06C129.669 29.06 130.136 28.94 130.549 28.7C130.963 28.4467 131.263 28.08 131.449 27.6L131.929 29.04C131.703 29.7333 131.289 30.26 130.689 30.62C130.089 30.98 129.316 31.16 128.369 31.16ZM141.013 31.16C140.093 31.16 139.206 31.0533 138.353 30.84C137.513 30.6133 136.846 30.3333 136.353 30L137.393 27.76C137.886 28.0667 138.466 28.32 139.133 28.52C139.813 28.7067 140.48 28.8 141.133 28.8C141.853 28.8 142.36 28.7133 142.653 28.54C142.96 28.3667 143.113 28.1267 143.113 27.82C143.113 27.5667 142.993 27.38 142.753 27.26C142.526 27.1267 142.22 27.0267 141.833 26.96C141.446 26.8933 141.02 26.8267 140.553 26.76C140.1 26.6933 139.64 26.6067 139.173 26.5C138.706 26.38 138.28 26.2067 137.893 25.98C137.506 25.7533 137.193 25.4467 136.953 25.06C136.726 24.6733 136.613 24.1733 136.613 23.56C136.613 22.88 136.806 22.28 137.193 21.76C137.593 21.24 138.166 20.8333 138.913 20.54C139.66 20.2333 140.553 20.08 141.593 20.08C142.326 20.08 143.073 20.16 143.833 20.32C144.593 20.48 145.226 20.7133 145.733 21.02L144.693 23.24C144.173 22.9333 143.646 22.7267 143.113 22.62C142.593 22.5 142.086 22.44 141.593 22.44C140.9 22.44 140.393 22.5333 140.073 22.72C139.753 22.9067 139.593 23.1467 139.593 23.44C139.593 23.7067 139.706 23.9067 139.933 24.04C140.173 24.1733 140.486 24.28 140.873 24.36C141.26 24.44 141.68 24.5133 142.133 24.58C142.6 24.6333 143.066 24.72 143.533 24.84C144 24.96 144.42 25.1333 144.793 25.36C145.18 25.5733 145.493 25.8733 145.733 26.26C145.973 26.6333 146.093 27.1267 146.093 27.74C146.093 28.4067 145.893 29 145.493 29.52C145.093 30.0267 144.513 30.4267 143.753 30.72C143.006 31.0133 142.093 31.16 141.013 31.16Z" fill="white"/>
</g>
<path d="M11.04 76.128V74.464L17.792 71.936V72.864L11.04 70.336V68.672L18.416 71.536V73.264L11.04 76.128ZM27.8114 78.112C27.0967 78.112 26.4087 78.0213 25.7474 77.84C25.0967 77.648 24.5794 77.4187 24.1954 77.152L24.9634 75.632C25.3474 75.8773 25.806 76.08 26.3394 76.24C26.8727 76.4 27.406 76.48 27.9394 76.48C28.5687 76.48 29.022 76.3947 29.2994 76.224C29.5874 76.0533 29.7314 75.824 29.7314 75.536C29.7314 75.3013 29.6354 75.1253 29.4434 75.008C29.2514 74.88 29.0007 74.784 28.6914 74.72C28.382 74.656 28.0354 74.5973 27.6514 74.544C27.278 74.4907 26.8994 74.4213 26.5154 74.336C26.142 74.24 25.8007 74.1067 25.4914 73.936C25.182 73.7547 24.9314 73.5147 24.7394 73.216C24.5474 72.9173 24.4514 72.5227 24.4514 72.032C24.4514 71.488 24.606 71.0187 24.9154 70.624C25.2247 70.2187 25.6567 69.9093 26.2114 69.696C26.7767 69.472 27.4434 69.36 28.2114 69.36C28.7874 69.36 29.3687 69.424 29.9554 69.552C30.542 69.68 31.0274 69.8613 31.4114 70.096L30.6434 71.616C30.238 71.3707 29.8274 71.2053 29.4114 71.12C29.006 71.024 28.6007 70.976 28.1954 70.976C27.5874 70.976 27.134 71.0667 26.8354 71.248C26.5474 71.4293 26.4034 71.6587 26.4034 71.936C26.4034 72.192 26.4994 72.384 26.6914 72.512C26.8834 72.64 27.134 72.7413 27.4434 72.816C27.7527 72.8907 28.094 72.9547 28.4674 73.008C28.8514 73.0507 29.23 73.12 29.6034 73.216C29.9767 73.312 30.318 73.4453 30.6274 73.616C30.9474 73.776 31.2034 74.0053 31.3954 74.304C31.5874 74.6027 31.6834 74.992 31.6834 75.472C31.6834 76.0053 31.5234 76.4693 31.2034 76.864C30.894 77.2587 30.4514 77.568 29.8754 77.792C29.2994 78.0053 28.6114 78.112 27.8114 78.112ZM38.6698 78V76.272L38.5578 75.904V72.88C38.5578 72.2933 38.3818 71.84 38.0298 71.52C37.6778 71.1893 37.1444 71.024 36.4298 71.024C35.9498 71.024 35.4751 71.0987 35.0058 71.248C34.5471 71.3973 34.1578 71.6053 33.8378 71.872L33.0538 70.416C33.5124 70.064 34.0564 69.8027 34.6858 69.632C35.3258 69.4507 35.9871 69.36 36.6698 69.36C37.9071 69.36 38.8618 69.6587 39.5338 70.256C40.2164 70.8427 40.5578 71.7547 40.5578 72.992V78H38.6698ZM35.9818 78.112C35.3418 78.112 34.7818 78.0053 34.3018 77.792C33.8218 77.568 33.4484 77.264 33.1818 76.88C32.9258 76.4853 32.7978 76.0427 32.7978 75.552C32.7978 75.072 32.9098 74.64 33.1338 74.256C33.3684 73.872 33.7471 73.568 34.2698 73.344C34.7924 73.12 35.4858 73.008 36.3498 73.008H38.8298V74.336H36.4938C35.8111 74.336 35.3524 74.448 35.1178 74.672C34.8831 74.8853 34.7658 75.152 34.7658 75.472C34.7658 75.8347 34.9098 76.1227 35.1978 76.336C35.4858 76.5493 35.8858 76.656 36.3978 76.656C36.8884 76.656 37.3258 76.544 37.7098 76.32C38.1044 76.096 38.3871 75.7653 38.5578 75.328L38.8938 76.528C38.7018 77.0293 38.3551 77.4187 37.8538 77.696C37.3631 77.9733 36.7391 78.112 35.9818 78.112ZM46.7405 78.112C46.0152 78.112 45.3752 77.9787 44.8205 77.712C44.2658 77.4347 43.8338 77.0187 43.5245 76.464C43.2152 75.8987 43.0605 75.1893 43.0605 74.336V69.456H45.0605V74.064C45.0605 74.832 45.2312 75.408 45.5725 75.792C45.9245 76.1653 46.4205 76.352 47.0605 76.352C47.5298 76.352 47.9352 76.256 48.2765 76.064C48.6285 75.872 48.9005 75.584 49.0925 75.2C49.2952 74.816 49.3965 74.3413 49.3965 73.776V69.456H51.3965V78H49.4925V75.696L49.8285 76.4C49.5405 76.9547 49.1192 77.3813 48.5645 77.68C48.0098 77.968 47.4018 78.112 46.7405 78.112ZM57.6311 78.112C56.8098 78.112 56.0685 77.9307 55.4071 77.568C54.7565 77.1947 54.2445 76.6827 53.8711 76.032C53.4978 75.3813 53.3111 74.6133 53.3111 73.728C53.3111 72.8427 53.4978 72.0747 53.8711 71.424C54.2445 70.7733 54.7565 70.2667 55.4071 69.904C56.0685 69.5413 56.8098 69.36 57.6311 69.36C58.3458 69.36 58.9858 69.52 59.5511 69.84C60.1165 70.1493 60.5645 70.624 60.8951 71.264C61.2258 71.904 61.3911 72.7253 61.3911 73.728C61.3911 74.72 61.2311 75.5413 60.9111 76.192C60.5911 76.832 60.1485 77.312 59.5831 77.632C59.0178 77.952 58.3671 78.112 57.6311 78.112ZM57.8711 76.4C58.3511 76.4 58.7778 76.2933 59.1511 76.08C59.5351 75.8667 59.8391 75.5573 60.0631 75.152C60.2978 74.7467 60.4151 74.272 60.4151 73.728C60.4151 73.1733 60.2978 72.6987 60.0631 72.304C59.8391 71.8987 59.5351 71.5893 59.1511 71.376C58.7778 71.1627 58.3511 71.056 57.8711 71.056C57.3911 71.056 56.9591 71.1627 56.5751 71.376C56.2018 71.5893 55.8978 71.8987 55.6631 72.304C55.4391 72.6987 55.3271 73.1733 55.3271 73.728C55.3271 74.272 55.4391 74.7467 55.6631 75.152C55.8978 75.5573 56.2018 75.8667 56.5751 76.08C56.9591 76.2933 57.3911 76.4 57.8711 76.4ZM60.4631 78V75.984L60.5431 73.712L60.3831 71.44V66.128H62.3671V78H60.4631ZM69.0155 78.112C68.0662 78.112 67.2342 77.9253 66.5195 77.552C65.8155 77.168 65.2662 76.6453 64.8715 75.984C64.4875 75.3227 64.2955 74.5707 64.2955 73.728C64.2955 72.8747 64.4822 72.1227 64.8555 71.472C65.2395 70.8107 65.7622 70.2933 66.4235 69.92C67.0955 69.5467 67.8582 69.36 68.7115 69.36C69.5435 69.36 70.2848 69.5413 70.9355 69.904C71.5862 70.2667 72.0982 70.7787 72.4715 71.44C72.8448 72.1013 73.0315 72.88 73.0315 73.776C73.0315 73.8613 73.0262 73.9573 73.0155 74.064C73.0155 74.1707 73.0102 74.272 72.9995 74.368H65.8795V73.04H71.9435L71.1595 73.456C71.1702 72.9653 71.0688 72.5333 70.8555 72.16C70.6422 71.7867 70.3488 71.4933 69.9755 71.28C69.6128 71.0667 69.1915 70.96 68.7115 70.96C68.2208 70.96 67.7888 71.0667 67.4155 71.28C67.0528 71.4933 66.7648 71.792 66.5515 72.176C66.3488 72.5493 66.2475 72.992 66.2475 73.504V73.824C66.2475 74.336 66.3648 74.7893 66.5995 75.184C66.8342 75.5787 67.1648 75.8827 67.5915 76.096C68.0182 76.3093 68.5088 76.416 69.0635 76.416C69.5435 76.416 69.9755 76.3413 70.3595 76.192C70.7435 76.0427 71.0848 75.808 71.3835 75.488L72.4555 76.72C72.0715 77.168 71.5862 77.5147 70.9995 77.76C70.4235 77.9947 69.7622 78.112 69.0155 78.112Z" fill="#616161"/>
<path d="M355.094 81.104C354.464 80.1333 353.979 79.0133 353.638 77.744C353.307 76.464 353.142 75.088 353.142 73.616C353.142 72.144 353.307 70.768 353.638 69.488C353.979 68.1973 354.464 67.0773 355.094 66.128H356.998C356.347 67.3013 355.867 68.5013 355.558 69.728C355.259 70.944 355.11 72.24 355.11 73.616C355.11 74.992 355.259 76.2933 355.558 77.52C355.867 78.736 356.347 79.9307 356.998 81.104H355.094ZM359.997 78V67.6L360.909 68.544H357.629V66.8H362.077V78H359.997ZM365.851 81.104H363.947C364.608 79.9307 365.088 78.736 365.387 77.52C365.696 76.2933 365.851 74.992 365.851 73.616C365.851 72.24 365.696 70.944 365.387 69.728C365.088 68.5013 364.608 67.3013 363.947 66.128H365.851C366.491 67.0773 366.976 68.1973 367.307 69.488C367.637 70.768 367.803 72.144 367.803 73.616C367.803 75.088 367.637 76.464 367.307 77.744C366.976 79.0133 366.491 80.1333 365.851 81.104Z" fill="#616161"/>
<path d="M11.04 110.128V108.464L17.792 105.936V106.864L11.04 104.336V102.672L18.416 105.536V107.264L11.04 110.128ZM28.7874 112.112C27.966 112.112 27.2247 111.931 26.5634 111.568C25.9127 111.195 25.4007 110.683 25.0274 110.032C24.654 109.381 24.4674 108.613 24.4674 107.728C24.4674 106.843 24.654 106.075 25.0274 105.424C25.4007 104.773 25.9127 104.267 26.5634 103.904C27.2247 103.541 27.966 103.36 28.7874 103.36C29.502 103.36 30.142 103.52 30.7074 103.84C31.2727 104.149 31.7207 104.624 32.0514 105.264C32.382 105.904 32.5474 106.725 32.5474 107.728C32.5474 108.72 32.3874 109.541 32.0674 110.192C31.7474 110.832 31.3047 111.312 30.7394 111.632C30.174 111.952 29.5234 112.112 28.7874 112.112ZM29.0274 110.4C29.5074 110.4 29.934 110.293 30.3074 110.08C30.6914 109.867 30.9954 109.557 31.2194 109.152C31.454 108.747 31.5714 108.272 31.5714 107.728C31.5714 107.173 31.454 106.699 31.2194 106.304C30.9954 105.899 30.6914 105.589 30.3074 105.376C29.934 105.163 29.5074 105.056 29.0274 105.056C28.5474 105.056 28.1154 105.163 27.7314 105.376C27.358 105.589 27.054 105.899 26.8194 106.304C26.5954 106.699 26.4834 107.173 26.4834 107.728C26.4834 108.272 26.5954 108.747 26.8194 109.152C27.054 109.557 27.358 109.867 27.7314 110.08C28.1154 110.293 28.5474 110.4 29.0274 110.4ZM31.6194 112V109.984L31.6994 107.712L31.5394 105.44V100.128H33.5234V112H31.6194ZM40.1718 112.112C39.2224 112.112 38.3904 111.925 37.6758 111.552C36.9718 111.168 36.4224 110.645 36.0278 109.984C35.6438 109.323 35.4518 108.571 35.4518 107.728C35.4518 106.875 35.6384 106.123 36.0118 105.472C36.3958 104.811 36.9184 104.293 37.5798 103.92C38.2518 103.547 39.0144 103.36 39.8678 103.36C40.6998 103.36 41.4411 103.541 42.0918 103.904C42.7424 104.267 43.2544 104.779 43.6278 105.44C44.0011 106.101 44.1878 106.88 44.1878 107.776C44.1878 107.861 44.1824 107.957 44.1718 108.064C44.1718 108.171 44.1664 108.272 44.1558 108.368H37.0358V107.04H43.0998L42.3158 107.456C42.3264 106.965 42.2251 106.533 42.0118 106.16C41.7984 105.787 41.5051 105.493 41.1318 105.28C40.7691 105.067 40.3478 104.96 39.8678 104.96C39.3771 104.96 38.9451 105.067 38.5718 105.28C38.2091 105.493 37.9211 105.792 37.7078 106.176C37.5051 106.549 37.4038 106.992 37.4038 107.504V107.824C37.4038 108.336 37.5211 108.789 37.7558 109.184C37.9904 109.579 38.3211 109.883 38.7478 110.096C39.1744 110.309 39.6651 110.416 40.2198 110.416C40.6998 110.416 41.1318 110.341 41.5158 110.192C41.8998 110.043 42.2411 109.808 42.5398 109.488L43.6118 110.72C43.2278 111.168 42.7424 111.515 42.1558 111.76C41.5798 111.995 40.9184 112.112 40.1718 112.112ZM48.7489 112.112C48.0342 112.112 47.3462 112.021 46.6849 111.84C46.0342 111.648 45.5169 111.419 45.1329 111.152L45.9009 109.632C46.2849 109.877 46.7435 110.08 47.2769 110.24C47.8102 110.4 48.3435 110.48 48.8769 110.48C49.5062 110.48 49.9595 110.395 50.2369 110.224C50.5249 110.053 50.6689 109.824 50.6689 109.536C50.6689 109.301 50.5729 109.125 50.3809 109.008C50.1889 108.88 49.9382 108.784 49.6289 108.72C49.3195 108.656 48.9729 108.597 48.5889 108.544C48.2155 108.491 47.8369 108.421 47.4529 108.336C47.0795 108.24 46.7382 108.107 46.4289 107.936C46.1195 107.755 45.8689 107.515 45.6769 107.216C45.4849 106.917 45.3889 106.523 45.3889 106.032C45.3889 105.488 45.5435 105.019 45.8529 104.624C46.1622 104.219 46.5942 103.909 47.1489 103.696C47.7142 103.472 48.3809 103.36 49.1489 103.36C49.7249 103.36 50.3062 103.424 50.8929 103.552C51.4795 103.68 51.9649 103.861 52.3489 104.096L51.5809 105.616C51.1755 105.371 50.7649 105.205 50.3489 105.12C49.9435 105.024 49.5382 104.976 49.1329 104.976C48.5249 104.976 48.0715 105.067 47.7729 105.248C47.4849 105.429 47.3409 105.659 47.3409 105.936C47.3409 106.192 47.4369 106.384 47.6289 106.512C47.8209 106.64 48.0715 106.741 48.3809 106.816C48.6902 106.891 49.0315 106.955 49.4049 107.008C49.7889 107.051 50.1675 107.12 50.5409 107.216C50.9142 107.312 51.2555 107.445 51.5649 107.616C51.8849 107.776 52.1409 108.005 52.3329 108.304C52.5249 108.603 52.6209 108.992 52.6209 109.472C52.6209 110.005 52.4609 110.469 52.1409 110.864C51.8315 111.259 51.3889 111.568 50.8129 111.792C50.2369 112.005 49.5489 112.112 48.7489 112.112ZM58.3593 112.112C57.4099 112.112 56.5779 111.925 55.8633 111.552C55.1593 111.168 54.6099 110.645 54.2153 109.984C53.8313 109.323 53.6393 108.571 53.6393 107.728C53.6393 106.875 53.8259 106.123 54.1993 105.472C54.5833 104.811 55.1059 104.293 55.7673 103.92C56.4393 103.547 57.2019 103.36 58.0553 103.36C58.8873 103.36 59.6286 103.541 60.2793 103.904C60.9299 104.267 61.4419 104.779 61.8153 105.44C62.1886 106.101 62.3753 106.88 62.3753 107.776C62.3753 107.861 62.3699 107.957 62.3593 108.064C62.3593 108.171 62.3539 108.272 62.3433 108.368H55.2233V107.04H61.2873L60.5033 107.456C60.5139 106.965 60.4126 106.533 60.1993 106.16C59.9859 105.787 59.6926 105.493 59.3193 105.28C58.9566 105.067 58.5353 104.96 58.0553 104.96C57.5646 104.96 57.1326 105.067 56.7593 105.28C56.3966 105.493 56.1086 105.792 55.8953 106.176C55.6926 106.549 55.5913 106.992 55.5913 107.504V107.824C55.5913 108.336 55.7086 108.789 55.9433 109.184C56.1779 109.579 56.5086 109.883 56.9353 110.096C57.3619 110.309 57.8526 110.416 58.4073 110.416C58.8873 110.416 59.3193 110.341 59.7033 110.192C60.0873 110.043 60.4286 109.808 60.7273 109.488L61.7993 110.72C61.4153 111.168 60.9299 111.515 60.3433 111.76C59.7673 111.995 59.1059 112.112 58.3593 112.112ZM69.1444 103.36C69.827 103.36 70.435 103.493 70.9684 103.76C71.5124 104.027 71.939 104.437 72.2484 104.992C72.5577 105.536 72.7124 106.24 72.7124 107.104V112H70.7124V107.36C70.7124 106.603 70.531 106.037 70.1684 105.664C69.8164 105.291 69.3204 105.104 68.6804 105.104C68.211 105.104 67.795 105.2 67.4324 105.392C67.0697 105.584 66.787 105.872 66.5844 106.256C66.3924 106.629 66.2964 107.104 66.2964 107.68V112H64.2964V103.456H66.2004V105.76L65.8644 105.056C66.163 104.512 66.595 104.096 67.1604 103.808C67.7364 103.509 68.3977 103.36 69.1444 103.36ZM77.3653 112L73.7012 103.456H75.7812L78.9333 110.992H77.9093L81.1733 103.456H83.0933L79.4293 112H77.3653ZM87.9489 112.112C87.0742 112.112 86.2955 111.925 85.6129 111.552C84.9302 111.168 84.3915 110.645 83.9969 109.984C83.6022 109.323 83.4049 108.571 83.4049 107.728C83.4049 106.875 83.6022 106.123 83.9969 105.472C84.3915 104.811 84.9302 104.293 85.6129 103.92C86.2955 103.547 87.0742 103.36 87.9489 103.36C88.8342 103.36 89.6182 103.547 90.3009 103.92C90.9942 104.293 91.5329 104.805 91.9169 105.456C92.3115 106.107 92.5089 106.864 92.5089 107.728C92.5089 108.571 92.3115 109.323 91.9169 109.984C91.5329 110.645 90.9942 111.168 90.3009 111.552C89.6182 111.925 88.8342 112.112 87.9489 112.112ZM87.9489 110.4C88.4395 110.4 88.8769 110.293 89.2609 110.08C89.6449 109.867 89.9435 109.557 90.1569 109.152C90.3809 108.747 90.4929 108.272 90.4929 107.728C90.4929 107.173 90.3809 106.699 90.1569 106.304C89.9435 105.899 89.6449 105.589 89.2609 105.376C88.8769 105.163 88.4449 105.056 87.9649 105.056C87.4742 105.056 87.0369 105.163 86.6529 105.376C86.2795 105.589 85.9809 105.899 85.7569 106.304C85.5329 106.699 85.4209 107.173 85.4209 107.728C85.4209 108.272 85.5329 108.747 85.7569 109.152C85.9809 109.557 86.2795 109.867 86.6529 110.08C87.0369 110.293 87.4689 110.4 87.9489 110.4ZM94.4214 112V100.128H96.4214V112H94.4214ZM101.318 112L97.6544 103.456H99.7344L102.886 110.992H101.862L105.126 103.456H107.046L103.382 112H101.318ZM108.296 112V103.456H110.296V112H108.296ZM109.304 102.048C108.931 102.048 108.622 101.931 108.376 101.696C108.142 101.461 108.024 101.179 108.024 100.848C108.024 100.507 108.142 100.224 108.376 100C108.622 99.7653 108.931 99.648 109.304 99.648C109.678 99.648 109.982 99.76 110.216 99.984C110.462 100.197 110.584 100.469 110.584 100.8C110.584 101.152 110.467 101.451 110.232 101.696C109.998 101.931 109.688 102.048 109.304 102.048ZM123.705 103.36C124.388 103.36 124.991 103.493 125.513 103.76C126.047 104.027 126.463 104.437 126.761 104.992C127.06 105.536 127.209 106.24 127.209 107.104V112H125.209V107.36C125.209 106.603 125.044 106.037 124.713 105.664C124.383 105.291 123.908 105.104 123.289 105.104C122.852 105.104 122.463 105.2 122.121 105.392C121.791 105.584 121.529 105.867 121.337 106.24C121.156 106.613 121.065 107.088 121.065 107.664V112H119.065V107.36C119.065 106.603 118.9 106.037 118.569 105.664C118.239 105.291 117.764 105.104 117.145 105.104C116.708 105.104 116.319 105.2 115.977 105.392C115.647 105.584 115.385 105.867 115.193 106.24C115.012 106.613 114.921 107.088 114.921 107.664V112H112.921V103.456H114.825V105.728L114.489 105.056C114.777 104.501 115.193 104.08 115.737 103.792C116.292 103.504 116.921 103.36 117.625 103.36C118.425 103.36 119.119 103.557 119.705 103.952C120.303 104.347 120.697 104.944 120.889 105.744L120.105 105.472C120.383 104.832 120.841 104.32 121.481 103.936C122.121 103.552 122.863 103.36 123.705 103.36ZM133.797 112.112C132.847 112.112 132.015 111.925 131.301 111.552C130.597 111.168 130.047 110.645 129.653 109.984C129.269 109.323 129.077 108.571 129.077 107.728C129.077 106.875 129.263 106.123 129.637 105.472C130.021 104.811 130.543 104.293 131.205 103.92C131.877 103.547 132.639 103.36 133.493 103.36C134.325 103.36 135.066 103.541 135.717 103.904C136.367 104.267 136.879 104.779 137.253 105.44C137.626 106.101 137.813 106.88 137.813 107.776C137.813 107.861 137.807 107.957 137.797 108.064C137.797 108.171 137.791 108.272 137.781 108.368H130.661V107.04H136.725L135.941 107.456C135.951 106.965 135.85 106.533 135.637 106.16C135.423 105.787 135.13 105.493 134.757 105.28C134.394 105.067 133.973 104.96 133.493 104.96C133.002 104.96 132.57 105.067 132.197 105.28C131.834 105.493 131.546 105.792 131.333 106.176C131.13 106.549 131.029 106.992 131.029 107.504V107.824C131.029 108.336 131.146 108.789 131.381 109.184C131.615 109.579 131.946 109.883 132.373 110.096C132.799 110.309 133.29 110.416 133.845 110.416C134.325 110.416 134.757 110.341 135.141 110.192C135.525 110.043 135.866 109.808 136.165 109.488L137.237 110.72C136.853 111.168 136.367 111.515 135.781 111.76C135.205 111.995 134.543 112.112 133.797 112.112ZM144.582 103.36C145.265 103.36 145.873 103.493 146.406 103.76C146.95 104.027 147.377 104.437 147.686 104.992C147.995 105.536 148.15 106.24 148.15 107.104V112H146.15V107.36C146.15 106.603 145.969 106.037 145.606 105.664C145.254 105.291 144.758 105.104 144.118 105.104C143.649 105.104 143.233 105.2 142.87 105.392C142.507 105.584 142.225 105.872 142.022 106.256C141.83 106.629 141.734 107.104 141.734 107.68V112H139.734V103.456H141.638V105.76L141.302 105.056C141.601 104.512 142.033 104.096 142.598 103.808C143.174 103.509 143.835 103.36 144.582 103.36ZM153.903 112.112C152.964 112.112 152.239 111.872 151.727 111.392C151.215 110.901 150.959 110.181 150.959 109.232V101.568H152.959V109.184C152.959 109.589 153.06 109.904 153.263 110.128C153.476 110.352 153.77 110.464 154.143 110.464C154.591 110.464 154.964 110.347 155.263 110.112L155.823 111.536C155.588 111.728 155.3 111.872 154.959 111.968C154.618 112.064 154.266 112.112 153.903 112.112ZM149.551 105.12V103.52H155.247V105.12H149.551ZM161.027 112.112C160.152 112.112 159.374 111.925 158.691 111.552C158.008 111.168 157.47 110.645 157.075 109.984C156.68 109.323 156.483 108.571 156.483 107.728C156.483 106.875 156.68 106.123 157.075 105.472C157.47 104.811 158.008 104.293 158.691 103.92C159.374 103.547 160.152 103.36 161.027 103.36C161.912 103.36 162.696 103.547 163.379 103.92C164.072 104.293 164.611 104.805 164.995 105.456C165.39 106.107 165.587 106.864 165.587 107.728C165.587 108.571 165.39 109.323 164.995 109.984C164.611 110.645 164.072 111.168 163.379 111.552C162.696 111.925 161.912 112.112 161.027 112.112ZM161.027 110.4C161.518 110.4 161.955 110.293 162.339 110.08C162.723 109.867 163.022 109.557 163.235 109.152C163.459 108.747 163.571 108.272 163.571 107.728C163.571 107.173 163.459 106.699 163.235 106.304C163.022 105.899 162.723 105.589 162.339 105.376C161.955 105.163 161.523 105.056 161.043 105.056C160.552 105.056 160.115 105.163 159.731 105.376C159.358 105.589 159.059 105.899 158.835 106.304C158.611 106.699 158.499 107.173 158.499 107.728C158.499 108.272 158.611 108.747 158.835 109.152C159.059 109.557 159.358 109.867 159.731 110.08C160.115 110.293 160.547 110.4 161.027 110.4Z" fill="#616161"/>
<path d="M352.06 115.104C351.431 114.133 350.945 113.013 350.604 111.744C350.273 110.464 350.108 109.088 350.108 107.616C350.108 106.144 350.273 104.768 350.604 103.488C350.945 102.197 351.431 101.077 352.06 100.128H353.964C353.313 101.301 352.833 102.501 352.524 103.728C352.225 104.944 352.076 106.24 352.076 107.616C352.076 108.992 352.225 110.293 352.524 111.52C352.833 112.736 353.313 113.931 353.964 115.104H352.06ZM354.871 112V110.608L359.319 106.384C359.692 106.032 359.97 105.723 360.151 105.456C360.332 105.189 360.45 104.944 360.503 104.72C360.567 104.485 360.599 104.267 360.599 104.064C360.599 103.552 360.423 103.157 360.071 102.88C359.719 102.592 359.202 102.448 358.519 102.448C357.975 102.448 357.479 102.544 357.031 102.736C356.594 102.928 356.215 103.221 355.895 103.616L354.439 102.496C354.876 101.909 355.463 101.456 356.199 101.136C356.946 100.805 357.778 100.64 358.695 100.64C359.506 100.64 360.21 100.773 360.807 101.04C361.415 101.296 361.879 101.664 362.199 102.144C362.53 102.624 362.695 103.195 362.695 103.856C362.695 104.219 362.647 104.581 362.551 104.944C362.455 105.296 362.274 105.669 362.007 106.064C361.74 106.459 361.351 106.901 360.839 107.392L357.015 111.024L356.583 110.24H363.127V112H354.871ZM365.879 115.104H363.975C364.637 113.931 365.117 112.736 365.415 111.52C365.725 110.293 365.879 108.992 365.879 107.616C365.879 106.24 365.725 104.944 365.415 103.728C365.117 102.501 364.637 101.301 363.975 100.128H365.879C366.519 101.077 367.005 102.197 367.335 103.488C367.666 104.768 367.831 106.144 367.831 107.616C367.831 109.088 367.666 110.464 367.335 111.744C367.005 113.013 366.519 114.133 365.879 115.104Z" fill="#616161"/>
<path d="M11.04 144.128V142.464L17.792 139.936V140.864L11.04 138.336V136.672L18.416 139.536V141.264L11.04 144.128ZM29.9074 146.112C29.214 146.112 28.5794 145.952 28.0034 145.632C27.438 145.312 26.9847 144.832 26.6434 144.192C26.3127 143.541 26.1474 142.72 26.1474 141.728C26.1474 140.725 26.3074 139.904 26.6274 139.264C26.958 138.624 27.406 138.149 27.9714 137.84C28.5367 137.52 29.182 137.36 29.9074 137.36C30.75 137.36 31.4914 137.541 32.1314 137.904C32.782 138.267 33.294 138.773 33.6674 139.424C34.0514 140.075 34.2434 140.843 34.2434 141.728C34.2434 142.613 34.0514 143.387 33.6674 144.048C33.294 144.699 32.782 145.205 32.1314 145.568C31.4914 145.931 30.75 146.112 29.9074 146.112ZM25.1714 149.104V137.456H27.0754V139.472L27.0114 141.744L27.1714 144.016V149.104H25.1714ZM29.6834 144.4C30.1634 144.4 30.59 144.293 30.9634 144.08C31.3474 143.867 31.6514 143.557 31.8754 143.152C32.0994 142.747 32.2114 142.272 32.2114 141.728C32.2114 141.173 32.0994 140.699 31.8754 140.304C31.6514 139.899 31.3474 139.589 30.9634 139.376C30.59 139.163 30.1634 139.056 29.6834 139.056C29.2034 139.056 28.7714 139.163 28.3874 139.376C28.0034 139.589 27.6994 139.899 27.4754 140.304C27.2514 140.699 27.1394 141.173 27.1394 141.728C27.1394 142.272 27.2514 142.747 27.4754 143.152C27.6994 143.557 28.0034 143.867 28.3874 144.08C28.7714 144.293 29.2034 144.4 29.6834 144.4ZM36.1401 146V137.456H38.0441V139.808L37.8201 139.12C38.0761 138.544 38.4761 138.107 39.0201 137.808C39.5748 137.509 40.2628 137.36 41.0841 137.36V139.264C40.9988 139.243 40.9188 139.232 40.8441 139.232C40.7695 139.221 40.6948 139.216 40.6201 139.216C39.8628 139.216 39.2601 139.44 38.8121 139.888C38.3641 140.325 38.1401 140.981 38.1401 141.856V146H36.1401ZM46.5426 146.112C45.668 146.112 44.8893 145.925 44.2066 145.552C43.524 145.168 42.9853 144.645 42.5906 143.984C42.196 143.323 41.9986 142.571 41.9986 141.728C41.9986 140.875 42.196 140.123 42.5906 139.472C42.9853 138.811 43.524 138.293 44.2066 137.92C44.8893 137.547 45.668 137.36 46.5426 137.36C47.428 137.36 48.212 137.547 48.8946 137.92C49.588 138.293 50.1266 138.805 50.5106 139.456C50.9053 140.107 51.1026 140.864 51.1026 141.728C51.1026 142.571 50.9053 143.323 50.5106 143.984C50.1266 144.645 49.588 145.168 48.8946 145.552C48.212 145.925 47.428 146.112 46.5426 146.112ZM46.5426 144.4C47.0333 144.4 47.4706 144.293 47.8546 144.08C48.2386 143.867 48.5373 143.557 48.7506 143.152C48.9746 142.747 49.0866 142.272 49.0866 141.728C49.0866 141.173 48.9746 140.699 48.7506 140.304C48.5373 139.899 48.2386 139.589 47.8546 139.376C47.4706 139.163 47.0386 139.056 46.5586 139.056C46.068 139.056 45.6306 139.163 45.2466 139.376C44.8733 139.589 44.5746 139.899 44.3506 140.304C44.1266 140.699 44.0146 141.173 44.0146 141.728C44.0146 142.272 44.1266 142.747 44.3506 143.152C44.5746 143.557 44.8733 143.867 45.2466 144.08C45.6306 144.293 46.0626 144.4 46.5426 144.4ZM56.6311 146.112C55.8098 146.112 55.0685 145.931 54.4071 145.568C53.7565 145.195 53.2445 144.683 52.8711 144.032C52.4978 143.381 52.3111 142.613 52.3111 141.728C52.3111 140.843 52.4978 140.075 52.8711 139.424C53.2445 138.773 53.7565 138.267 54.4071 137.904C55.0685 137.541 55.8098 137.36 56.6311 137.36C57.3458 137.36 57.9858 137.52 58.5511 137.84C59.1165 138.149 59.5645 138.624 59.8951 139.264C60.2258 139.904 60.3911 140.725 60.3911 141.728C60.3911 142.72 60.2311 143.541 59.9111 144.192C59.5911 144.832 59.1485 145.312 58.5831 145.632C58.0178 145.952 57.3671 146.112 56.6311 146.112ZM56.8711 144.4C57.3511 144.4 57.7778 144.293 58.1511 144.08C58.5351 143.867 58.8391 143.557 59.0631 143.152C59.2978 142.747 59.4151 142.272 59.4151 141.728C59.4151 141.173 59.2978 140.699 59.0631 140.304C58.8391 139.899 58.5351 139.589 58.1511 139.376C57.7778 139.163 57.3511 139.056 56.8711 139.056C56.3911 139.056 55.9591 139.163 55.5751 139.376C55.2018 139.589 54.8978 139.899 54.6631 140.304C54.4391 140.699 54.3271 141.173 54.3271 141.728C54.3271 142.272 54.4391 142.747 54.6631 143.152C54.8978 143.557 55.2018 143.867 55.5751 144.08C55.9591 144.293 56.3911 144.4 56.8711 144.4ZM59.4631 146V143.984L59.5431 141.712L59.3831 139.44V134.128H61.3671V146H59.4631ZM67.6155 146.112C66.8902 146.112 66.2502 145.979 65.6955 145.712C65.1408 145.435 64.7088 145.019 64.3995 144.464C64.0902 143.899 63.9355 143.189 63.9355 142.336V137.456H65.9355V142.064C65.9355 142.832 66.1062 143.408 66.4475 143.792C66.7995 144.165 67.2955 144.352 67.9355 144.352C68.4048 144.352 68.8102 144.256 69.1515 144.064C69.5035 143.872 69.7755 143.584 69.9675 143.2C70.1702 142.816 70.2715 142.341 70.2715 141.776V137.456H72.2715V146H70.3675V143.696L70.7035 144.4C70.4155 144.955 69.9942 145.381 69.4395 145.68C68.8848 145.968 68.2768 146.112 67.6155 146.112ZM78.1061 146.112C77.1675 146.112 76.4421 145.872 75.9301 145.392C75.4181 144.901 75.1621 144.181 75.1621 143.232V135.568H77.1621V143.184C77.1621 143.589 77.2635 143.904 77.4661 144.128C77.6795 144.352 77.9728 144.464 78.3461 144.464C78.7941 144.464 79.1675 144.347 79.4661 144.112L80.0261 145.536C79.7915 145.728 79.5035 145.872 79.1621 145.968C78.8208 146.064 78.4688 146.112 78.1061 146.112ZM73.7541 139.12V137.52H79.4501V139.12H73.7541ZM81.6714 146V137.456H83.6714V146H81.6714ZM82.6794 136.048C82.306 136.048 81.9967 135.931 81.7514 135.696C81.5167 135.461 81.3994 135.179 81.3994 134.848C81.3994 134.507 81.5167 134.224 81.7514 134C81.9967 133.765 82.306 133.648 82.6794 133.648C83.0527 133.648 83.3567 133.76 83.5914 133.984C83.8367 134.197 83.9594 134.469 83.9594 134.8C83.9594 135.152 83.842 135.451 83.6074 135.696C83.3727 135.931 83.0634 136.048 82.6794 136.048ZM88.5684 146L84.9044 137.456H86.9844L90.1364 144.992H89.1124L92.3764 137.456H94.2964L90.6324 146H88.5684ZM95.5464 146V137.456H97.5464V146H95.5464ZM96.5544 136.048C96.181 136.048 95.8717 135.931 95.6264 135.696C95.3917 135.461 95.2744 135.179 95.2744 134.848C95.2744 134.507 95.3917 134.224 95.6264 134C95.8717 133.765 96.181 133.648 96.5544 133.648C96.9277 133.648 97.2317 133.76 97.4664 133.984C97.7117 134.197 97.8344 134.469 97.8344 134.8C97.8344 135.152 97.717 135.451 97.4824 135.696C97.2477 135.931 96.9384 136.048 96.5544 136.048ZM103.787 146.112C102.966 146.112 102.225 145.931 101.563 145.568C100.913 145.195 100.401 144.683 100.027 144.032C99.654 143.381 99.4674 142.613 99.4674 141.728C99.4674 140.843 99.654 140.075 100.027 139.424C100.401 138.773 100.913 138.267 101.563 137.904C102.225 137.541 102.966 137.36 103.787 137.36C104.502 137.36 105.142 137.52 105.707 137.84C106.273 138.149 106.721 138.624 107.051 139.264C107.382 139.904 107.547 140.725 107.547 141.728C107.547 142.72 107.387 143.541 107.067 144.192C106.747 144.832 106.305 145.312 105.739 145.632C105.174 145.952 104.523 146.112 103.787 146.112ZM104.027 144.4C104.507 144.4 104.934 144.293 105.307 144.08C105.691 143.867 105.995 143.557 106.219 143.152C106.454 142.747 106.571 142.272 106.571 141.728C106.571 141.173 106.454 140.699 106.219 140.304C105.995 139.899 105.691 139.589 105.307 139.376C104.934 139.163 104.507 139.056 104.027 139.056C103.547 139.056 103.115 139.163 102.731 139.376C102.358 139.589 102.054 139.899 101.819 140.304C101.595 140.699 101.483 141.173 101.483 141.728C101.483 142.272 101.595 142.747 101.819 143.152C102.054 143.557 102.358 143.867 102.731 144.08C103.115 144.293 103.547 144.4 104.027 144.4ZM106.619 146V143.984L106.699 141.712L106.539 139.44V134.128H108.523V146H106.619ZM116.42 146V144.272L116.308 143.904V140.88C116.308 140.293 116.132 139.84 115.78 139.52C115.428 139.189 114.894 139.024 114.18 139.024C113.7 139.024 113.225 139.099 112.756 139.248C112.297 139.397 111.908 139.605 111.588 139.872L110.804 138.416C111.262 138.064 111.806 137.803 112.436 137.632C113.076 137.451 113.737 137.36 114.42 137.36C115.657 137.36 116.612 137.659 117.284 138.256C117.966 138.843 118.308 139.755 118.308 140.992V146H116.42ZM113.732 146.112C113.092 146.112 112.532 146.005 112.052 145.792C111.572 145.568 111.198 145.264 110.932 144.88C110.676 144.485 110.548 144.043 110.548 143.552C110.548 143.072 110.66 142.64 110.884 142.256C111.118 141.872 111.497 141.568 112.02 141.344C112.542 141.12 113.236 141.008 114.1 141.008H116.58V142.336H114.244C113.561 142.336 113.102 142.448 112.868 142.672C112.633 142.885 112.516 143.152 112.516 143.472C112.516 143.835 112.66 144.123 112.948 144.336C113.236 144.549 113.636 144.656 114.148 144.656C114.638 144.656 115.076 144.544 115.46 144.32C115.854 144.096 116.137 143.765 116.308 143.328L116.644 144.528C116.452 145.029 116.105 145.419 115.604 145.696C115.113 145.973 114.489 146.112 113.732 146.112ZM124.506 146.112C123.685 146.112 122.943 145.931 122.282 145.568C121.631 145.195 121.119 144.683 120.746 144.032C120.373 143.381 120.186 142.613 120.186 141.728C120.186 140.843 120.373 140.075 120.746 139.424C121.119 138.773 121.631 138.267 122.282 137.904C122.943 137.541 123.685 137.36 124.506 137.36C125.221 137.36 125.861 137.52 126.426 137.84C126.991 138.149 127.439 138.624 127.77 139.264C128.101 139.904 128.266 140.725 128.266 141.728C128.266 142.72 128.106 143.541 127.786 144.192C127.466 144.832 127.023 145.312 126.458 145.632C125.893 145.952 125.242 146.112 124.506 146.112ZM124.746 144.4C125.226 144.4 125.653 144.293 126.026 144.08C126.41 143.867 126.714 143.557 126.938 143.152C127.173 142.747 127.29 142.272 127.29 141.728C127.29 141.173 127.173 140.699 126.938 140.304C126.714 139.899 126.41 139.589 126.026 139.376C125.653 139.163 125.226 139.056 124.746 139.056C124.266 139.056 123.834 139.163 123.45 139.376C123.077 139.589 122.773 139.899 122.538 140.304C122.314 140.699 122.202 141.173 122.202 141.728C122.202 142.272 122.314 142.747 122.538 143.152C122.773 143.557 123.077 143.867 123.45 144.08C123.834 144.293 124.266 144.4 124.746 144.4ZM127.338 146V143.984L127.418 141.712L127.258 139.44V134.128H129.242V146H127.338ZM135.891 146.112C134.941 146.112 134.109 145.925 133.395 145.552C132.691 145.168 132.141 144.645 131.747 143.984C131.363 143.323 131.171 142.571 131.171 141.728C131.171 140.875 131.357 140.123 131.731 139.472C132.115 138.811 132.637 138.293 133.299 137.92C133.971 137.547 134.733 137.36 135.587 137.36C136.419 137.36 137.16 137.541 137.811 137.904C138.461 138.267 138.973 138.779 139.347 139.44C139.72 140.101 139.907 140.88 139.907 141.776C139.907 141.861 139.901 141.957 139.891 142.064C139.891 142.171 139.885 142.272 139.875 142.368H132.755V141.04H138.819L138.035 141.456C138.045 140.965 137.944 140.533 137.731 140.16C137.517 139.787 137.224 139.493 136.851 139.28C136.488 139.067 136.067 138.96 135.587 138.96C135.096 138.96 134.664 139.067 134.291 139.28C133.928 139.493 133.64 139.792 133.427 140.176C133.224 140.549 133.123 140.992 133.123 141.504V141.824C133.123 142.336 133.24 142.789 133.475 143.184C133.709 143.579 134.04 143.883 134.467 144.096C134.893 144.309 135.384 144.416 135.939 144.416C136.419 144.416 136.851 144.341 137.235 144.192C137.619 144.043 137.96 143.808 138.259 143.488L139.331 144.72C138.947 145.168 138.461 145.515 137.875 145.76C137.299 145.995 136.637 146.112 135.891 146.112Z" fill="#616161"/>
<path d="M352.06 149.104C351.431 148.133 350.945 147.013 350.604 145.744C350.273 144.464 350.108 143.088 350.108 141.616C350.108 140.144 350.273 138.768 350.604 137.488C350.945 136.197 351.431 135.077 352.06 134.128H353.964C353.313 135.301 352.833 136.501 352.524 137.728C352.225 138.944 352.076 140.24 352.076 141.616C352.076 142.992 352.225 144.293 352.524 145.52C352.833 146.736 353.313 147.931 353.964 149.104H352.06ZM354.871 146V144.608L359.319 140.384C359.692 140.032 359.97 139.723 360.151 139.456C360.332 139.189 360.45 138.944 360.503 138.72C360.567 138.485 360.599 138.267 360.599 138.064C360.599 137.552 360.423 137.157 360.071 136.88C359.719 136.592 359.202 136.448 358.519 136.448C357.975 136.448 357.479 136.544 357.031 136.736C356.594 136.928 356.215 137.221 355.895 137.616L354.439 136.496C354.876 135.909 355.463 135.456 356.199 135.136C356.946 134.805 357.778 134.64 358.695 134.64C359.506 134.64 360.21 134.773 360.807 135.04C361.415 135.296 361.879 135.664 362.199 136.144C362.53 136.624 362.695 137.195 362.695 137.856C362.695 138.219 362.647 138.581 362.551 138.944C362.455 139.296 362.274 139.669 362.007 140.064C361.74 140.459 361.351 140.901 360.839 141.392L357.015 145.024L356.583 144.24H363.127V146H354.871ZM365.879 149.104H363.975C364.637 147.931 365.117 146.736 365.415 145.52C365.725 144.293 365.879 142.992 365.879 141.616C365.879 140.24 365.725 138.944 365.415 137.728C365.117 136.501 364.637 135.301 363.975 134.128H365.879C366.519 135.077 367.005 136.197 367.335 137.488C367.666 138.768 367.831 140.144 367.831 141.616C367.831 143.088 367.666 144.464 367.335 145.744C367.005 147.013 366.519 148.133 365.879 149.104Z" fill="#616161"/>
<path d="M11.04 178.128V176.464L17.792 173.936V174.864L11.04 172.336V170.672L18.416 173.536V175.264L11.04 178.128ZM29.0114 180.112C28.1367 180.112 27.358 179.925 26.6754 179.552C25.9927 179.168 25.454 178.645 25.0594 177.984C24.6647 177.323 24.4674 176.571 24.4674 175.728C24.4674 174.875 24.6647 174.123 25.0594 173.472C25.454 172.811 25.9927 172.293 26.6754 171.92C27.358 171.547 28.1367 171.36 29.0114 171.36C29.8967 171.36 30.6807 171.547 31.3634 171.92C32.0567 172.293 32.5954 172.805 32.9794 173.456C33.374 174.107 33.5714 174.864 33.5714 175.728C33.5714 176.571 33.374 177.323 32.9794 177.984C32.5954 178.645 32.0567 179.168 31.3634 179.552C30.6807 179.925 29.8967 180.112 29.0114 180.112ZM29.0114 178.4C29.502 178.4 29.9394 178.293 30.3234 178.08C30.7074 177.867 31.006 177.557 31.2194 177.152C31.4434 176.747 31.5554 176.272 31.5554 175.728C31.5554 175.173 31.4434 174.699 31.2194 174.304C31.006 173.899 30.7074 173.589 30.3234 173.376C29.9394 173.163 29.5074 173.056 29.0274 173.056C28.5367 173.056 28.0994 173.163 27.7154 173.376C27.342 173.589 27.0434 173.899 26.8194 174.304C26.5954 174.699 26.4834 175.173 26.4834 175.728C26.4834 176.272 26.5954 176.747 26.8194 177.152C27.0434 177.557 27.342 177.867 27.7154 178.08C28.0994 178.293 28.5314 178.4 29.0114 178.4ZM40.2199 180.112C39.5265 180.112 38.8919 179.952 38.3159 179.632C37.7505 179.312 37.2972 178.832 36.9559 178.192C36.6252 177.541 36.4599 176.72 36.4599 175.728C36.4599 174.725 36.6199 173.904 36.9399 173.264C37.2705 172.624 37.7185 172.149 38.2839 171.84C38.8492 171.52 39.4945 171.36 40.2199 171.36C41.0625 171.36 41.8039 171.541 42.4439 171.904C43.0945 172.267 43.6065 172.773 43.9799 173.424C44.3639 174.075 44.5559 174.843 44.5559 175.728C44.5559 176.613 44.3639 177.387 43.9799 178.048C43.6065 178.699 43.0945 179.205 42.4439 179.568C41.8039 179.931 41.0625 180.112 40.2199 180.112ZM35.4839 183.104V171.456H37.3879V173.472L37.3239 175.744L37.4839 178.016V183.104H35.4839ZM39.9959 178.4C40.4759 178.4 40.9025 178.293 41.2759 178.08C41.6599 177.867 41.9639 177.557 42.1879 177.152C42.4119 176.747 42.5239 176.272 42.5239 175.728C42.5239 175.173 42.4119 174.699 42.1879 174.304C41.9639 173.899 41.6599 173.589 41.2759 173.376C40.9025 173.163 40.4759 173.056 39.9959 173.056C39.5159 173.056 39.0839 173.163 38.6999 173.376C38.3159 173.589 38.0119 173.899 37.7879 174.304C37.5639 174.699 37.4519 175.173 37.4519 175.728C37.4519 176.272 37.5639 176.747 37.7879 177.152C38.0119 177.557 38.3159 177.867 38.6999 178.08C39.0839 178.293 39.5159 178.4 39.9959 178.4ZM46.4526 180V171.456H48.4526V180H46.4526ZM47.4606 170.048C47.0873 170.048 46.778 169.931 46.5326 169.696C46.298 169.461 46.1806 169.179 46.1806 168.848C46.1806 168.507 46.298 168.224 46.5326 168C46.778 167.765 47.0873 167.648 47.4606 167.648C47.834 167.648 48.138 167.76 48.3726 167.984C48.618 168.197 48.7406 168.469 48.7406 168.8C48.7406 169.152 48.6233 169.451 48.3886 169.696C48.154 169.931 47.8446 170.048 47.4606 170.048ZM55.9256 171.36C56.6083 171.36 57.2163 171.493 57.7496 171.76C58.2936 172.027 58.7203 172.437 59.0296 172.992C59.339 173.536 59.4936 174.24 59.4936 175.104V180H57.4936V175.36C57.4936 174.603 57.3123 174.037 56.9496 173.664C56.5976 173.291 56.1016 173.104 55.4616 173.104C54.9923 173.104 54.5763 173.2 54.2136 173.392C53.851 173.584 53.5683 173.872 53.3656 174.256C53.1736 174.629 53.0776 175.104 53.0776 175.68V180H51.0776V171.456H52.9816V173.76L52.6456 173.056C52.9443 172.512 53.3763 172.096 53.9416 171.808C54.5176 171.509 55.179 171.36 55.9256 171.36ZM62.0308 180V171.456H64.0308V180H62.0308ZM63.0388 170.048C62.6654 170.048 62.3561 169.931 62.1108 169.696C61.8761 169.461 61.7588 169.179 61.7588 168.848C61.7588 168.507 61.8761 168.224 62.1108 168C62.3561 167.765 62.6654 167.648 63.0388 167.648C63.4121 167.648 63.7161 167.76 63.9508 167.984C64.1961 168.197 64.3188 168.469 64.3188 168.8C64.3188 169.152 64.2014 169.451 63.9668 169.696C63.7321 169.931 63.4228 170.048 63.0388 170.048ZM71.9198 180V178.272L71.8078 177.904V174.88C71.8078 174.293 71.6318 173.84 71.2798 173.52C70.9278 173.189 70.3944 173.024 69.6798 173.024C69.1998 173.024 68.7251 173.099 68.2558 173.248C67.7971 173.397 67.4078 173.605 67.0878 173.872L66.3038 172.416C66.7624 172.064 67.3064 171.803 67.9358 171.632C68.5758 171.451 69.2371 171.36 69.9198 171.36C71.1571 171.36 72.1118 171.659 72.7838 172.256C73.4664 172.843 73.8078 173.755 73.8078 174.992V180H71.9198ZM69.2318 180.112C68.5918 180.112 68.0318 180.005 67.5518 179.792C67.0718 179.568 66.6984 179.264 66.4318 178.88C66.1758 178.485 66.0478 178.043 66.0478 177.552C66.0478 177.072 66.1598 176.64 66.3838 176.256C66.6184 175.872 66.9971 175.568 67.5198 175.344C68.0424 175.12 68.7358 175.008 69.5998 175.008H72.0798V176.336H69.7438C69.0611 176.336 68.6024 176.448 68.3678 176.672C68.1331 176.885 68.0158 177.152 68.0158 177.472C68.0158 177.835 68.1598 178.123 68.4478 178.336C68.7358 178.549 69.1358 178.656 69.6478 178.656C70.1384 178.656 70.5758 178.544 70.9598 178.32C71.3544 178.096 71.6371 177.765 71.8078 177.328L72.1438 178.528C71.9518 179.029 71.6051 179.419 71.1038 179.696C70.6131 179.973 69.9891 180.112 69.2318 180.112ZM80.2301 180.112C79.3555 180.112 78.5768 179.925 77.8941 179.552C77.2115 179.168 76.6728 178.645 76.2781 177.984C75.8835 177.323 75.6861 176.571 75.6861 175.728C75.6861 174.875 75.8835 174.123 76.2781 173.472C76.6728 172.811 77.2115 172.293 77.8941 171.92C78.5768 171.547 79.3555 171.36 80.2301 171.36C81.1155 171.36 81.8995 171.547 82.5821 171.92C83.2755 172.293 83.8141 172.805 84.1981 173.456C84.5928 174.107 84.7901 174.864 84.7901 175.728C84.7901 176.571 84.5928 177.323 84.1981 177.984C83.8141 178.645 83.2755 179.168 82.5821 179.552C81.8995 179.925 81.1155 180.112 80.2301 180.112ZM80.2301 178.4C80.7208 178.4 81.1581 178.293 81.5421 178.08C81.9261 177.867 82.2248 177.557 82.4381 177.152C82.6621 176.747 82.7741 176.272 82.7741 175.728C82.7741 175.173 82.6621 174.699 82.4381 174.304C82.2248 173.899 81.9261 173.589 81.5421 173.376C81.1581 173.163 80.7261 173.056 80.2461 173.056C79.7555 173.056 79.3181 173.163 78.9341 173.376C78.5608 173.589 78.2621 173.899 78.0381 174.304C77.8141 174.699 77.7021 175.173 77.7021 175.728C77.7021 176.272 77.8141 176.747 78.0381 177.152C78.2621 177.557 78.5608 177.867 78.9341 178.08C79.3181 178.293 79.7501 178.4 80.2301 178.4Z" fill="#616161"/>
<path d="M352.06 183.104C351.431 182.133 350.945 181.013 350.604 179.744C350.273 178.464 350.108 177.088 350.108 175.616C350.108 174.144 350.273 172.768 350.604 171.488C350.945 170.197 351.431 169.077 352.06 168.128H353.964C353.313 169.301 352.833 170.501 352.524 171.728C352.225 172.944 352.076 174.24 352.076 175.616C352.076 176.992 352.225 178.293 352.524 179.52C352.833 180.736 353.313 181.931 353.964 183.104H352.06ZM356.963 180V169.6L357.875 170.544H354.595V168.8H359.043V180H356.963ZM362.817 183.104H360.913C361.574 181.931 362.054 180.736 362.353 179.52C362.662 178.293 362.817 176.992 362.817 175.616C362.817 174.24 362.662 172.944 362.353 171.728C362.054 170.501 361.574 169.301 360.913 168.128H362.817C363.457 169.077 363.942 170.197 364.273 171.488C364.604 172.768 364.769 174.144 364.769 175.616C364.769 177.088 364.604 178.464 364.273 179.744C363.942 181.013 363.457 182.133 362.817 183.104Z" fill="#616161"/>
<defs>
<filter id="filter0_d_108_32" x="0" y="0" width="380" height="68" filterUnits="userSpaceOnUse" color-interpolation-filters="sRGB">
<feFlood flood-opacity="0" result="BackgroundImageFix"/>
<feColorMatrix in="SourceAlpha" type="matrix" values="0 0 0 0 0 0 0 0 0 0 0 0 0 0 0 0 0 0 127 0" result="hardAlpha"/>
<feOffset dy="10"/>
<feGaussianBlur stdDeviation="5"/>
<feComposite in2="hardAlpha" operator="out"/>
<feColorMatrix type="matrix" values="0 0 0 0 0 0 0 0 0 0 0 0 0 0 0 0 0 0 0.1 0"/>
<feBlend mode="normal" in2="BackgroundImageFix" result="effect1_dropShadow_108_32"/>
<feBlend mode="normal" in="SourceGraphic" in2="effect1_dropShadow_108_32" result="shape"/>
</filter>
</defs>
</svg>
